<?xml version="1.0" encoding="UTF-8"?>
<svg id="Layer_2" xmlns="http://www.w3.org/2000/svg" viewBox="0 0 557.46 557.46">
  <defs>
    <style>
      .cls-1 {
        fill: #ffd100;
        fill-rule: evenodd;
      }
    </style>
  </defs>
  <g id="_ò_x2021__xF8FF__x5F_1" data-name="ò_x2021__xF8FF__x5F_1">
    <path class="cls-1" d="M278.73,0C124.79,0,0,124.79,0,278.73s124.79,278.73,278.73,278.73,278.73-124.79,278.73-278.73S432.67,0,278.73,0ZM407.64,366.45c-6.42,10.81-14.12,20.69-23.77,28.91-16.44,15.61-35.85,26-57.69,31.53-51.48,13.01-98.93,4.79-141.07-28.47-17.42-13.75-31.12-30.73-40.78-50.83-21.7-40.34-22.48-97.3-.2-138.25h0c15.56-34.24,56.15-73.5,111.74-82.38,47.26-7.55,89.56,3.59,126.11,35.07,2.31,1.99,2.88,3.15.37,5.61-43.08,42.18-39.77,41.88-42.9,39.02-43.25-39.62-120.32-24.58-144.46,41.65-6.73,20.04-6.39,40.11-.38,60.22,4.61,11.72,10.35,22.79,18.86,32.21,34.62,38.24,84.49,39.44,121.99,16.51,17.55-13.4,24.22-25.91,29.27-42.72,1.01-3.37.69-4.68-3.47-4.64-24.81.21-49.63.11-74.44.1q-5.26,0-5.26-5.44c0-16.82.08-33.64-.07-50.45-.03-3.25.54-4.49,4.19-4.48,45.77.13,91.54.1,137.3.04,2.47,0,4.02.18,4.45,3.18,5.69,40.03,1.13,78.28-19.82,113.6Z"/>
  </g>
</svg>